<svg width="356" height="155" viewBox="0 0 356 155" fill="none" xmlns="http://www.w3.org/2000/svg">
<path d="M2.976 71.896C2.976 70.104 3.616 68.696 4.896 67.672C6.24 66.648 8.16 65.656 10.656 64.696L28.992 56.056C32.512 54.456 34.24 53.656 34.176 53.656L37.248 52.12C38.656 51.352 39.84 50.776 40.8 50.392C41.824 50.008 42.912 49.816 44.064 49.816C45.28 49.816 46.208 50.264 46.848 51.16C47.488 52.056 47.808 53.112 47.808 54.328C47.808 55.608 47.456 56.568 46.752 57.208C46.112 57.848 45.248 58.456 44.16 59.032C43.136 59.608 42.336 60.056 41.76 60.376L27.936 66.232L15.264 71.512C18.656 72.792 22.08 73.976 25.536 75.064C28.992 76.088 33.184 77.304 38.112 78.712C41.76 79.736 44.16 80.44 45.312 80.824C46.528 81.208 47.424 81.88 48 82.84C48.576 83.736 48.864 84.664 48.864 85.624C48.864 86.904 48.416 88.024 47.52 88.984C46.688 89.944 45.696 90.424 44.544 90.424C43.648 90.424 42.336 90.04 40.608 89.272C38.816 88.632 37.6 88.216 36.96 88.024C32.16 86.616 25.664 84.28 17.472 81.016C16.128 80.504 14.784 80.024 13.44 79.576C12.16 79.064 11.04 78.648 10.08 78.328C8.16 77.688 6.496 76.792 5.088 75.64C3.68 74.488 2.976 73.24 2.976 71.896ZM88.6853 29.368C89.7093 29.368 90.5413 29.656 91.1813 30.232C91.8213 30.744 92.1413 31.384 92.1413 32.152C92.1413 32.856 91.9813 33.496 91.6613 34.072C89.5493 37.4 87.7253 40.504 86.1893 43.384C84.6533 46.264 82.7333 50.008 80.4293 54.616C79.5333 56.408 78.0933 59.256 76.1093 63.16C75.1493 65.016 73.7733 68.056 71.9813 72.28C69.3573 78.168 67.2133 82.648 65.5493 85.72C63.5653 89.56 61.2933 91.48 58.7333 91.48C55.4693 91.48 53.8373 90.328 53.8373 88.024C53.8373 87.128 54.1253 86.296 54.7013 85.528C58.1573 80.472 61.1013 75.576 63.5333 70.84C66.0293 66.04 68.7173 60.44 71.5973 54.04C74.8613 46.744 77.6133 41.048 79.8533 36.952C80.9413 34.776 82.0933 32.984 83.3093 31.576C84.5893 30.104 86.3813 29.368 88.6853 29.368ZM161.022 77.944C162.238 77.944 163.134 78.424 163.71 79.384C164.35 80.28 164.67 81.272 164.67 82.36C164.67 83.704 164.446 84.664 163.998 85.24C163.614 85.752 162.846 86.296 161.694 86.872C159.006 88.152 155.678 89.176 151.71 89.944C147.742 90.712 143.486 91.096 138.942 91.096C133.246 91.096 129.054 90.136 126.366 88.216C123.742 86.296 122.11 83.992 121.47 81.304C120.894 78.552 120.606 74.968 120.606 70.552C120.606 65.816 120.798 61.176 121.182 56.632C121.566 52.024 122.238 46.168 123.198 39.064C123.646 35.992 124.862 33.784 126.846 32.44C128.83 31.032 131.006 30.328 133.374 30.328C135.358 30.328 138.59 30.264 143.07 30.136L151.422 30.04C154.878 30.04 157.374 30.136 158.91 30.328C160.83 30.712 162.238 31.16 163.134 31.672C164.094 32.12 164.574 32.92 164.574 34.072C164.574 35.352 164.126 36.6 163.23 37.816C162.398 39.032 161.118 39.64 159.39 39.64C157.406 39.64 154.558 39.512 150.846 39.256C147.134 39 144.35 38.872 142.494 38.872C140.894 38.872 139.326 38.968 137.79 39.16C135.998 39.288 134.718 39.512 133.95 39.832C133.182 40.152 132.734 40.696 132.606 41.464C131.71 48.056 131.262 52.92 131.262 56.056C132.734 56.248 134.174 56.344 135.582 56.344C137.374 56.344 139.294 56.248 141.342 56.056C143.39 55.864 144.702 55.736 145.278 55.672C148.67 55.352 151.582 55.192 154.014 55.192C155.422 55.192 156.478 55.448 157.182 55.96C157.95 56.472 158.334 57.176 158.334 58.072C158.334 59.48 157.95 60.568 157.182 61.336C156.478 62.104 155.198 62.68 153.342 63.064C151.102 63.512 148.318 63.864 144.99 64.12C141.726 64.376 138.526 64.504 135.39 64.504C134.302 64.504 132.798 64.44 130.878 64.312C130.686 68.216 130.59 71.832 130.59 75.16C130.59 79.704 133.598 81.976 139.614 81.976C142.814 81.976 145.47 81.752 147.582 81.304C149.694 80.856 152.126 80.216 154.878 79.384C157.438 78.424 159.486 77.944 161.022 77.944ZM186.151 85.72C186.151 87.32 185.511 88.824 184.231 90.232C182.951 91.576 181.543 92.248 180.007 92.248C178.215 92.248 176.583 91.768 175.111 90.808C173.639 89.784 172.903 88.504 172.903 86.968C172.903 84.536 173.351 82.744 174.247 81.592C175.207 80.44 176.615 79.864 178.471 79.864C180.647 79.864 182.471 80.408 183.943 81.496C185.415 82.52 186.151 83.928 186.151 85.72ZM242.32 44.824C239.568 42.84 237.2 41.4 235.216 40.504C233.232 39.544 230.928 39.064 228.304 39.064C223.056 39.064 218.544 40.408 214.768 43.096C211.888 45.208 209.744 47.96 208.336 51.352C206.928 54.744 206.224 58.552 206.224 62.776C206.224 66.808 207.152 70.36 209.008 73.432C210.864 76.44 213.264 78.744 216.208 80.344C219.152 81.944 222.224 82.744 225.424 82.744C228.624 82.744 231.376 82.264 233.68 81.304C236.048 80.28 237.936 78.968 239.344 77.368C241.52 74.616 242.608 70.968 242.608 66.424C242.608 65.784 242.096 65.336 241.072 65.08C240.048 64.824 238.576 64.696 236.656 64.696L229.744 64.792C227.888 64.792 226.416 64.44 225.328 63.736C224.24 63.032 223.696 62.136 223.696 61.048C223.696 59.512 224.208 58.392 225.232 57.688C226.256 56.92 227.632 56.536 229.36 56.536C231.408 56.536 234.16 56.664 237.616 56.92C241.072 57.176 243.568 57.304 245.104 57.304C247.344 57.304 249.136 58.008 250.48 59.416C251.888 60.824 252.592 62.872 252.592 65.56C252.592 68.056 252.048 70.968 250.96 74.296C249.872 77.624 248.336 80.6 246.352 83.224C244.432 85.784 241.584 87.736 237.808 89.08C234.096 90.36 229.968 91 225.424 91C221.648 91 218 90.392 214.48 89.176C210.96 87.96 208.016 86.264 205.648 84.088C202.704 81.336 200.368 78.072 198.64 74.296C196.976 70.456 196.144 66.648 196.144 62.872C196.144 57.368 197.424 52.024 199.984 46.84C202.608 41.592 206.128 37.528 210.544 34.648C212.464 33.368 215.152 32.312 218.608 31.48C222.064 30.648 225.232 30.232 228.112 30.232C232.592 30.232 236.528 30.936 239.92 32.344C243.312 33.688 245.904 35.64 247.696 38.2C248.464 39.352 248.848 40.376 248.848 41.272C248.848 42.296 248.4 43.256 247.504 44.152C246.608 45.048 245.712 45.496 244.816 45.496C244.432 45.496 243.984 45.432 243.472 45.304C242.96 45.176 242.576 45.016 242.32 44.824ZM276.057 85.72C276.057 87.32 275.417 88.824 274.137 90.232C272.857 91.576 271.449 92.248 269.913 92.248C268.121 92.248 266.489 91.768 265.017 90.808C263.545 89.784 262.809 88.504 262.809 86.968C262.809 84.536 263.257 82.744 264.153 81.592C265.113 80.44 266.521 79.864 268.377 79.864C270.553 79.864 272.377 80.408 273.849 81.496C275.321 82.52 276.057 83.928 276.057 85.72ZM352.541 71.896C352.541 73.24 351.837 74.488 350.429 75.64C349.085 76.792 347.453 77.688 345.533 78.328C345.085 78.456 342.429 79.416 337.565 81.208C328.925 84.536 322.621 86.808 318.653 88.024C317.245 88.408 315.997 88.856 314.909 89.368C313.053 90.072 311.741 90.424 310.973 90.424C309.885 90.424 308.893 89.944 307.997 88.984C307.101 87.96 306.653 86.84 306.653 85.624C306.653 84.664 306.941 83.736 307.517 82.84C308.093 81.88 309.021 81.208 310.301 80.824C311.453 80.44 313.853 79.736 317.501 78.712C322.429 77.304 326.621 76.088 330.077 75.064C333.533 73.976 336.957 72.792 340.349 71.512L327.677 66.232L313.853 60.376C313.277 60.056 312.381 59.576 311.165 58.936C309.949 58.296 309.085 57.624 308.573 56.92C308.061 56.216 307.805 55.352 307.805 54.328C307.805 53.112 308.125 52.056 308.765 51.16C309.405 50.264 310.333 49.816 311.549 49.816C312.637 49.816 313.629 50.008 314.525 50.392C315.421 50.712 316.733 51.288 318.461 52.12C319.933 52.952 320.893 53.464 321.341 53.656L344.957 64.696C347.453 65.656 349.341 66.648 350.621 67.672C351.901 68.696 352.541 70.104 352.541 71.896Z" fill="#FDF0D5"/>
<path d="M23.568 121.736C23.872 121.736 24.096 121.856 24.24 122.096C24.4 122.32 24.48 122.568 24.48 122.84C24.48 123.176 24.424 123.416 24.312 123.56C24.216 123.688 24.024 123.824 23.736 123.968C23.064 124.288 22.232 124.544 21.24 124.736C20.248 124.928 19.184 125.024 18.048 125.024C16.624 125.024 15.576 124.784 14.904 124.304C14.248 123.824 13.84 123.248 13.68 122.576C13.536 121.888 13.464 120.992 13.464 119.888C13.464 118.704 13.512 117.544 13.608 116.408C13.704 115.256 13.872 113.792 14.112 112.016C14.224 111.248 14.528 110.696 15.024 110.36C15.52 110.008 16.064 109.832 16.656 109.832C17.152 109.832 17.96 109.816 19.08 109.784L21.168 109.76C22.032 109.76 22.656 109.784 23.04 109.832C23.52 109.928 23.872 110.04 24.096 110.168C24.336 110.28 24.456 110.48 24.456 110.768C24.456 111.088 24.344 111.4 24.12 111.704C23.912 112.008 23.592 112.16 23.16 112.16C22.664 112.16 21.952 112.128 21.024 112.064C20.096 112 19.4 111.968 18.936 111.968C18.536 111.968 18.144 111.992 17.76 112.04C17.312 112.072 16.992 112.128 16.8 112.208C16.608 112.288 16.496 112.424 16.464 112.616C16.24 114.264 16.128 115.48 16.128 116.264C16.496 116.312 16.856 116.336 17.208 116.336C17.656 116.336 18.136 116.312 18.648 116.264C19.16 116.216 19.488 116.184 19.632 116.168C20.48 116.088 21.208 116.048 21.816 116.048C22.168 116.048 22.432 116.112 22.608 116.24C22.8 116.368 22.896 116.544 22.896 116.768C22.896 117.12 22.8 117.392 22.608 117.584C22.432 117.776 22.112 117.92 21.648 118.016C21.088 118.128 20.392 118.216 19.56 118.28C18.744 118.344 17.944 118.376 17.16 118.376C16.888 118.376 16.512 118.36 16.032 118.328C15.984 119.304 15.96 120.208 15.96 121.04C15.96 122.176 16.712 122.744 18.216 122.744C19.016 122.744 19.68 122.688 20.208 122.576C20.736 122.464 21.344 122.304 22.032 122.096C22.672 121.856 23.184 121.736 23.568 121.736ZM29.949 124.04C29.949 124.312 29.845 124.552 29.637 124.76C29.429 124.968 29.173 125.072 28.869 125.072C28.389 125.072 28.037 124.984 27.813 124.808C27.589 124.616 27.477 124.272 27.477 123.776C27.477 123.184 27.461 122.408 27.429 121.448C27.397 120.648 27.381 119.976 27.381 119.432C27.381 119.176 27.397 118.84 27.429 118.424C27.461 118.04 27.477 117.752 27.477 117.56C27.429 117.256 27.309 117.008 27.117 116.816C26.925 116.608 26.677 116.504 26.373 116.504C26.229 116.504 26.109 116.44 26.013 116.312C25.917 116.168 25.869 116.024 25.869 115.88C25.869 115.512 26.013 115.232 26.301 115.04C26.605 114.848 26.965 114.752 27.381 114.752C28.245 114.752 28.845 115.264 29.181 116.288C29.597 115.808 30.069 115.424 30.597 115.136C31.141 114.832 31.661 114.68 32.157 114.68C32.749 114.68 33.285 114.84 33.765 115.16C34.261 115.48 34.509 115.912 34.509 116.456C34.509 116.76 34.373 117.072 34.101 117.392C33.845 117.712 33.581 117.872 33.309 117.872C33.165 117.872 33.037 117.84 32.925 117.776C32.829 117.696 32.709 117.584 32.565 117.44C32.405 117.28 32.269 117.168 32.157 117.104C32.045 117.024 31.917 116.984 31.773 116.984C31.517 116.984 31.277 117.024 31.053 117.104C30.829 117.184 30.677 117.28 30.597 117.392C30.341 117.792 30.149 118.152 30.021 118.472C29.909 118.792 29.853 119.136 29.853 119.504C29.853 119.776 29.845 119.992 29.829 120.152L29.805 121.52C29.805 121.728 29.813 121.96 29.829 122.216C29.845 122.472 29.861 122.664 29.877 122.792C29.925 123.224 29.949 123.64 29.949 124.04ZM37.1601 109.592C37.7201 109.64 38.2081 109.792 38.6241 110.048C39.0401 110.288 39.2481 110.656 39.2481 111.152C39.2481 111.52 39.0721 111.816 38.7201 112.04C38.3841 112.248 37.9761 112.352 37.4961 112.352C37.0321 112.352 36.7121 112.232 36.5361 111.992C36.3601 111.752 36.2721 111.504 36.2721 111.248C36.2721 110.768 36.3201 110.368 36.4161 110.048C36.5281 109.728 36.7761 109.576 37.1601 109.592ZM39.0801 120.224V120.92C39.0801 121.544 39.0961 122.136 39.1281 122.696C39.1761 123.24 39.2321 123.792 39.2961 124.352C39.2801 124.512 39.1601 124.68 38.9361 124.856C38.7121 125.016 38.5121 125.096 38.3361 125.096C38.0321 125.096 37.7201 125.04 37.4001 124.928C37.0961 124.8 36.9121 124.648 36.8481 124.472C36.7521 123.96 36.7041 123.504 36.7041 123.104C36.7041 121.792 36.6641 120.32 36.5841 118.688C36.5201 117.248 36.4881 116.24 36.4881 115.664C36.4881 115.376 36.6321 115.128 36.9201 114.92C37.2081 114.712 37.5121 114.608 37.8321 114.608C38.2961 114.608 38.6161 114.712 38.7921 114.92C38.9841 115.128 39.0801 115.456 39.0801 115.904V120.224ZM49.5407 117.728C49.3007 117.728 49.0927 117.672 48.9167 117.56C48.7567 117.432 48.5887 117.264 48.4127 117.056C48.2367 116.848 48.0447 116.712 47.8367 116.648C47.6447 116.584 47.4207 116.552 47.1647 116.552C46.7007 116.552 46.2447 116.696 45.7967 116.984C45.3647 117.256 45.0047 117.64 44.7167 118.136C44.4447 118.632 44.3087 119.184 44.3087 119.792C44.3087 120.464 44.4367 121.024 44.6927 121.472C44.9647 121.92 45.3887 122.312 45.9647 122.648C46.1727 122.76 46.4127 122.848 46.6847 122.912C46.9727 122.976 47.2207 123.008 47.4287 123.008C47.9247 123.008 48.5647 122.792 49.3487 122.36C49.4127 122.328 49.5327 122.272 49.7087 122.192C49.9007 122.096 50.0447 122.048 50.1407 122.048C50.3167 122.048 50.5167 122.136 50.7407 122.312C50.9647 122.472 51.0767 122.672 51.0767 122.912C51.0767 123.392 50.8687 123.8 50.4527 124.136C50.0527 124.472 49.5487 124.72 48.9407 124.88C48.3327 125.04 47.7327 125.12 47.1407 125.12C46.1967 125.12 45.3167 124.904 44.5007 124.472C43.6847 124.04 43.0367 123.44 42.5567 122.672C42.0767 121.904 41.8367 121.04 41.8367 120.08C41.8367 119.04 42.0687 118.104 42.5327 117.272C42.9967 116.424 43.6207 115.76 44.4047 115.28C45.2047 114.784 46.0687 114.536 46.9967 114.536C47.8927 114.536 48.7167 114.712 49.4687 115.064C50.2367 115.416 50.6207 115.952 50.6207 116.672C50.6207 117.376 50.2607 117.728 49.5407 117.728ZM69.8612 113.456C69.1732 112.96 68.5812 112.6 68.0852 112.376C67.5892 112.136 67.0132 112.016 66.3572 112.016C65.0452 112.016 63.9172 112.352 62.9732 113.024C62.2532 113.552 61.7172 114.24 61.3652 115.088C61.0132 115.936 60.8372 116.888 60.8372 117.944C60.8372 118.952 61.0692 119.84 61.5332 120.608C61.9972 121.36 62.5972 121.936 63.3332 122.336C64.0692 122.736 64.8372 122.936 65.6372 122.936C66.4372 122.936 67.1252 122.816 67.7012 122.576C68.2932 122.32 68.7652 121.992 69.1172 121.592C69.6612 120.904 69.9332 119.992 69.9332 118.856C69.9332 118.696 69.8052 118.584 69.5492 118.52C69.2932 118.456 68.9252 118.424 68.4452 118.424L66.7172 118.448C66.2532 118.448 65.8852 118.36 65.6132 118.184C65.3412 118.008 65.2052 117.784 65.2052 117.512C65.2052 117.128 65.3332 116.848 65.5892 116.672C65.8452 116.48 66.1892 116.384 66.6212 116.384C67.1332 116.384 67.8212 116.416 68.6852 116.48C69.5492 116.544 70.1732 116.576 70.5572 116.576C71.1172 116.576 71.5652 116.752 71.9012 117.104C72.2532 117.456 72.4292 117.968 72.4292 118.64C72.4292 119.264 72.2932 119.992 72.0212 120.824C71.7492 121.656 71.3652 122.4 70.8692 123.056C70.3892 123.696 69.6772 124.184 68.7332 124.52C67.8052 124.84 66.7732 125 65.6372 125C64.6932 125 63.7812 124.848 62.9012 124.544C62.0212 124.24 61.2852 123.816 60.6932 123.272C59.9572 122.584 59.3732 121.768 58.9412 120.824C58.5252 119.864 58.3172 118.912 58.3172 117.968C58.3172 116.592 58.6372 115.256 59.2772 113.96C59.9332 112.648 60.8132 111.632 61.9172 110.912C62.3972 110.592 63.0692 110.328 63.9332 110.12C64.7972 109.912 65.5892 109.808 66.3092 109.808C67.4292 109.808 68.4132 109.984 69.2612 110.336C70.1092 110.672 70.7572 111.16 71.2052 111.8C71.3972 112.088 71.4932 112.344 71.4932 112.568C71.4932 112.824 71.3812 113.064 71.1572 113.288C70.9332 113.512 70.7092 113.624 70.4852 113.624C70.3892 113.624 70.2772 113.608 70.1492 113.576C70.0212 113.544 69.9252 113.504 69.8612 113.456ZM84.0795 125.096C83.5355 125.096 83.1195 125.016 82.8315 124.856C82.5435 124.68 82.2315 124.36 81.8955 123.896C81.4795 124.264 80.8555 124.56 80.0235 124.784C79.2075 125.008 78.5035 125.12 77.9115 125.12C76.9355 125.12 76.1435 124.856 75.5355 124.328C74.9435 123.784 74.6475 122.992 74.6475 121.952C74.6475 121.504 74.7675 121.096 75.0075 120.728C75.2635 120.344 75.5915 120.008 75.9915 119.72C76.4395 119.416 76.9675 119.176 77.5755 119C78.1995 118.824 78.7675 118.736 79.2795 118.736C80.1435 118.736 80.9115 118.816 81.5835 118.976V118.952C81.5835 118.088 81.3675 117.496 80.9355 117.176C80.5195 116.84 79.8475 116.672 78.9195 116.672C78.3275 116.672 77.8155 116.936 77.3835 117.464C77.2235 117.672 76.8875 117.776 76.3755 117.776C76.1195 117.776 75.9275 117.672 75.7995 117.464C75.6875 117.24 75.6315 117.016 75.6315 116.792C75.6315 116.328 75.8235 115.928 76.2075 115.592C76.6075 115.256 77.0875 115.008 77.6475 114.848C78.2075 114.672 78.7275 114.584 79.2075 114.584C79.6715 114.584 80.2235 114.68 80.8635 114.872C81.5035 115.064 82.0235 115.32 82.4235 115.64C82.9035 116.056 83.2715 116.544 83.5275 117.104C83.7995 117.648 83.9355 118.248 83.9355 118.904C83.9355 119.112 83.9195 119.424 83.8875 119.84C83.8555 120.32 83.8395 120.712 83.8395 121.016C83.8395 121.16 83.8235 121.344 83.7915 121.568C83.7595 121.856 83.7435 122.096 83.7435 122.288C83.7435 122.496 83.8075 122.696 83.9355 122.888C84.0635 123.08 84.2395 123.24 84.4635 123.368C84.6715 123.48 84.8075 123.6 84.8715 123.728C84.9355 123.856 84.9675 124 84.9675 124.16C84.9675 124.32 84.8635 124.52 84.6555 124.76C84.4635 124.984 84.2715 125.096 84.0795 125.096ZM79.2795 120.512C78.6555 120.512 78.1035 120.632 77.6235 120.872C77.1435 121.112 76.9035 121.536 76.9035 122.144C76.9035 122.448 77.0075 122.704 77.2155 122.912C77.4395 123.12 77.6795 123.224 77.9355 123.224C78.6235 123.224 79.1995 123.152 79.6635 123.008C80.1275 122.864 80.6875 122.6 81.3435 122.216C81.4235 121.96 81.4715 121.6 81.4875 121.136C81.4875 120.96 81.4955 120.824 81.5115 120.728C80.6475 120.584 79.9035 120.512 79.2795 120.512ZM90.108 124.04C90.076 124.312 89.964 124.552 89.772 124.76C89.58 124.968 89.332 125.072 89.028 125.072C88.548 125.072 88.196 124.984 87.972 124.808C87.748 124.616 87.636 124.272 87.636 123.776C87.636 123.104 87.676 122.368 87.756 121.568C87.82 120.64 87.852 119.928 87.852 119.432C87.852 119.176 87.836 118.856 87.804 118.472C87.772 118.12 87.756 117.856 87.756 117.68C87.708 117.408 87.596 117.192 87.42 117.032C87.26 116.872 87.004 116.736 86.652 116.624C86.508 116.56 86.388 116.456 86.292 116.312C86.196 116.152 86.148 116.008 86.148 115.88C86.148 115.512 86.292 115.232 86.58 115.04C86.868 114.848 87.22 114.752 87.636 114.752C88.1 114.752 88.5 114.912 88.836 115.232C89.172 115.552 89.428 115.952 89.604 116.432C89.972 115.904 90.42 115.48 90.948 115.16C91.492 114.84 92.02 114.68 92.532 114.68C93.188 114.68 93.74 114.792 94.188 115.016C94.652 115.224 94.884 115.592 94.884 116.12C94.884 116.424 94.748 116.744 94.476 117.08C94.22 117.4 93.956 117.56 93.684 117.56C93.476 117.56 93.228 117.464 92.94 117.272C92.828 117.192 92.7 117.128 92.556 117.08C92.428 117.016 92.292 116.984 92.148 116.984C91.892 116.984 91.652 117.024 91.428 117.104C91.204 117.184 91.052 117.28 90.972 117.392C90.716 117.792 90.524 118.152 90.396 118.472C90.284 118.792 90.228 119.136 90.228 119.504C90.228 119.776 90.22 119.992 90.204 120.152L90.18 121.52L90.204 122.432C90.204 123.104 90.172 123.64 90.108 124.04ZM104.831 116.984C104.831 117.688 104.471 118.04 103.751 118.04C103.511 118.04 103.311 117.984 103.151 117.872C102.991 117.76 102.815 117.592 102.623 117.368C102.143 116.84 101.727 116.576 101.375 116.576C100.911 116.576 100.455 116.712 100.007 116.984C99.5751 117.256 99.2231 117.64 98.9511 118.136C98.6791 118.632 98.5431 119.184 98.5431 119.792C98.5431 120.464 98.6711 121.024 98.9271 121.472C99.1991 121.92 99.6151 122.304 100.175 122.624C100.383 122.736 100.623 122.824 100.895 122.888C101.183 122.952 101.431 122.984 101.639 122.984C102.103 122.984 102.687 122.8 103.391 122.432C103.647 122.304 103.863 122.208 104.039 122.144C104.215 122.08 104.399 122.048 104.591 122.048C104.767 122.048 104.967 122.128 105.191 122.288C105.415 122.448 105.527 122.648 105.527 122.888C105.527 123.368 105.303 123.776 104.855 124.112C104.407 124.432 103.855 124.68 103.199 124.856C102.559 125.016 101.943 125.096 101.351 125.096C100.407 125.096 99.5271 124.88 98.7111 124.448C97.9111 124.016 97.2711 123.424 96.7911 122.672C96.3111 121.904 96.0711 121.04 96.0711 120.08C96.0711 119.056 96.3031 118.12 96.7671 117.272C97.2311 116.424 97.8551 115.76 98.6391 115.28C99.4231 114.8 100.279 114.56 101.207 114.56C101.735 114.56 102.279 114.656 102.839 114.848C103.399 115.04 103.871 115.32 104.255 115.688C104.639 116.056 104.831 116.488 104.831 116.984ZM108.737 109.592C109.297 109.64 109.777 109.792 110.177 110.048C110.593 110.288 110.801 110.656 110.801 111.152C110.801 111.52 110.633 111.816 110.297 112.04C109.961 112.248 109.545 112.352 109.049 112.352C108.585 112.352 108.265 112.232 108.089 111.992C107.913 111.752 107.825 111.504 107.825 111.248C107.825 110.784 107.881 110.392 107.993 110.072C108.105 109.736 108.353 109.576 108.737 109.592ZM108.257 119.504V118.808C108.257 118.008 108.217 117.28 108.137 116.624C108.073 115.952 108.033 115.536 108.017 115.376C108.033 115.2 108.153 115.032 108.377 114.872C108.601 114.712 108.801 114.632 108.977 114.632C109.281 114.632 109.585 114.696 109.889 114.824C110.209 114.936 110.409 115.08 110.489 115.256C110.569 115.848 110.609 116.304 110.609 116.624C110.609 117.328 110.641 118.48 110.705 120.08L110.729 121.016L110.777 121.928C110.793 122.184 110.809 122.488 110.825 122.84C110.841 123.192 110.849 123.592 110.849 124.04C110.849 124.344 110.697 124.6 110.393 124.808C110.105 125.016 109.801 125.12 109.481 125.12C109.017 125.12 108.689 125.016 108.497 124.808C108.321 124.6 108.233 124.272 108.233 123.824L108.257 119.504ZM124.575 123.848C124.575 124.2 124.383 124.496 123.999 124.736C123.631 124.976 123.287 125.096 122.967 125.096C122.359 125.096 121.871 125.024 121.503 124.88C121.151 124.72 120.823 124.432 120.519 124.016C120.103 124.384 119.535 124.664 118.815 124.856C118.095 125.032 117.431 125.12 116.823 125.12C115.831 125.12 115.015 124.856 114.375 124.328C113.735 123.784 113.415 122.992 113.415 121.952C113.415 121.504 113.535 121.096 113.775 120.728C114.015 120.344 114.343 120.008 114.759 119.72C115.223 119.416 115.751 119.184 116.343 119.024C116.935 118.848 117.551 118.76 118.191 118.76C118.527 118.76 118.927 118.824 119.391 118.952C119.855 119.08 120.215 119.216 120.471 119.36V118.976C120.471 118.112 120.263 117.52 119.847 117.2C119.431 116.864 118.759 116.696 117.831 116.696C117.559 116.696 117.287 116.752 117.015 116.864C116.759 116.976 116.463 117.128 116.127 117.32C115.679 117.56 115.255 117.68 114.855 117.68C114.711 117.68 114.575 117.584 114.447 117.392C114.319 117.184 114.255 117 114.255 116.84C114.255 116.376 114.471 115.976 114.903 115.64C115.351 115.304 115.879 115.056 116.487 114.896C117.095 114.72 117.639 114.632 118.119 114.632C118.599 114.632 119.151 114.728 119.775 114.92C120.399 115.096 120.911 115.344 121.311 115.664C121.791 116.08 122.159 116.568 122.415 117.128C122.687 117.672 122.823 118.272 122.823 118.928C122.823 119.136 122.807 119.448 122.775 119.864C122.743 120.312 122.727 120.696 122.727 121.016C122.727 121.16 122.711 121.376 122.679 121.664C122.647 122.016 122.631 122.296 122.631 122.504C122.631 122.696 122.703 122.864 122.847 123.008C122.991 123.136 123.159 123.2 123.351 123.2L124.023 123.176C124.199 123.176 124.335 123.24 124.431 123.368C124.527 123.496 124.575 123.656 124.575 123.848ZM116.847 123.224C117.535 123.224 118.111 123.152 118.575 123.008C119.039 122.864 119.599 122.6 120.255 122.216C120.319 121.944 120.359 121.584 120.375 121.136C119.495 120.72 118.767 120.512 118.191 120.512C117.535 120.512 116.951 120.632 116.439 120.872C115.927 121.112 115.671 121.536 115.671 122.144C115.671 122.448 115.799 122.704 116.055 122.912C116.311 123.12 116.575 123.224 116.847 123.224ZM141.689 118.64C142.441 118.64 142.817 119.056 142.817 119.888C142.817 120.336 142.665 120.656 142.361 120.848C142.073 121.024 141.705 121.112 141.257 121.112C141.129 121.112 140.993 121.104 140.849 121.088C140.705 121.072 140.561 121.056 140.417 121.04C139.937 120.96 139.505 120.92 139.121 120.92C138.529 120.92 137.513 120.952 136.073 121.016C134.569 121.08 133.481 121.112 132.809 121.112C132.041 121.112 131.537 120.936 131.297 120.584C131.201 120.408 131.153 120.224 131.153 120.032C131.153 119.632 131.289 119.296 131.561 119.024C131.721 118.864 132.273 118.768 133.217 118.736C134.177 118.688 135.241 118.664 136.409 118.664C136.617 118.664 137.321 118.688 138.521 118.736C138.937 118.768 139.761 118.744 140.993 118.664L141.689 118.64ZM161.567 120.656C161.567 121.408 161.391 122.056 161.039 122.6C160.703 123.128 160.143 123.616 159.359 124.064C158.831 124.384 158.215 124.624 157.511 124.784C156.807 124.944 156.095 125.024 155.375 125.024C154.639 125.024 153.727 124.784 152.639 124.304C151.855 123.92 151.231 123.464 150.767 122.936C150.319 122.408 150.095 121.832 150.095 121.208C150.095 120.776 150.191 120.464 150.383 120.272C150.575 120.064 150.887 119.96 151.319 119.96C151.543 119.96 151.775 120.056 152.015 120.248C152.255 120.424 152.399 120.6 152.447 120.776C152.671 121.432 153.063 121.936 153.623 122.288C154.183 122.624 154.879 122.792 155.711 122.792C156.671 122.792 157.471 122.616 158.111 122.264C158.767 121.912 159.095 121.44 159.095 120.848C159.095 120.272 158.743 119.76 158.039 119.312C157.335 118.864 156.615 118.552 155.879 118.376C154.823 118.088 153.887 117.744 153.071 117.344C152.223 116.928 151.591 116.416 151.175 115.808C150.759 115.2 150.551 114.56 150.551 113.888C150.551 113.264 150.767 112.632 151.199 111.992C151.631 111.336 152.143 110.864 152.735 110.576C153.055 110.416 153.599 110.248 154.367 110.072C155.151 109.88 155.719 109.784 156.071 109.784C156.535 109.784 157.047 109.84 157.607 109.952C158.167 110.064 158.623 110.224 158.975 110.432C159.679 110.832 160.199 111.192 160.535 111.512C160.871 111.832 161.039 112.232 161.039 112.712C161.039 113 160.927 113.256 160.703 113.48C160.495 113.704 160.127 113.816 159.599 113.816C159.471 113.816 159.343 113.76 159.215 113.648C159.087 113.536 158.927 113.368 158.735 113.144C158.479 112.808 158.231 112.584 157.991 112.472C157.751 112.392 157.399 112.304 156.935 112.208C156.487 112.112 156.087 112.064 155.735 112.064C155.351 112.064 154.951 112.144 154.535 112.304C154.119 112.464 153.767 112.696 153.479 113C153.207 113.288 153.071 113.624 153.071 114.008C153.071 114.328 153.215 114.608 153.503 114.848C153.807 115.072 154.167 115.256 154.583 115.4C155.063 115.592 155.583 115.76 156.143 115.904C156.879 116.128 157.479 116.336 157.943 116.528C158.423 116.704 158.887 116.928 159.335 117.2C160.119 117.664 160.687 118.144 161.039 118.64C161.391 119.12 161.567 119.792 161.567 120.656ZM173.267 117.296C173.395 117.52 173.499 117.848 173.579 118.28C173.659 118.696 173.699 119.072 173.699 119.408C173.699 119.84 173.651 120.32 173.555 120.848C173.459 121.376 173.371 121.784 173.291 122.072C172.187 124.088 170.555 125.096 168.395 125.096C167.595 125.096 166.779 124.832 165.947 124.304C165.115 123.776 164.539 123.168 164.219 122.48C163.787 121.12 163.571 120.248 163.571 119.864C163.571 119.224 163.707 118.544 163.979 117.824C164.267 117.104 164.627 116.48 165.059 115.952C165.347 115.584 165.843 115.272 166.547 115.016C167.251 114.744 167.891 114.608 168.467 114.608C169.587 114.608 170.531 114.824 171.299 115.256C172.083 115.672 172.739 116.352 173.267 117.296ZM171.179 121.16C171.259 121 171.299 120.464 171.299 119.552C171.299 119.088 171.211 118.632 171.035 118.184C170.875 117.736 170.635 117.352 170.315 117.032C170.283 117 170.195 116.952 170.051 116.888C169.907 116.808 169.707 116.736 169.451 116.672C169.211 116.592 168.931 116.552 168.611 116.552C167.715 116.552 167.059 116.912 166.643 117.632C166.227 118.352 166.019 119.168 166.019 120.08C166.019 120.224 166.067 120.52 166.163 120.968C166.259 121.416 166.331 121.704 166.379 121.832C166.507 122.056 166.763 122.32 167.147 122.624C167.547 122.912 167.979 123.056 168.443 123.056C169.163 123.056 169.731 122.888 170.147 122.552C170.579 122.2 170.923 121.736 171.179 121.16ZM183.031 112.496C182.807 112.496 182.591 112.44 182.383 112.328C182.175 112.216 182.031 112.048 181.951 111.824C181.791 111.392 181.615 111.088 181.423 110.912C181.247 110.72 181.031 110.624 180.775 110.624C180.615 110.624 180.463 110.744 180.319 110.984C180.191 111.224 180.095 111.6 180.031 112.112C179.919 113.168 179.863 114.024 179.863 114.68C179.959 114.696 181.303 114.68 183.895 114.632L184.759 114.608H185.935C186.031 114 186.079 113.44 186.079 112.928C186.079 112.688 186.071 112.48 186.055 112.304C186.039 112.128 186.031 111.992 186.031 111.896C186.031 111.544 186.159 111.28 186.415 111.104C186.687 110.928 186.991 110.84 187.327 110.84C187.743 110.84 188.023 110.944 188.167 111.152C188.327 111.36 188.407 111.744 188.407 112.304C188.407 113.136 188.343 113.888 188.215 114.56L190.159 114.536C190.447 114.536 190.671 114.592 190.831 114.704C190.991 114.816 191.071 115 191.071 115.256C191.071 115.624 190.959 115.928 190.735 116.168C190.511 116.408 190.247 116.528 189.943 116.528H188.023C187.943 117.52 187.903 118.288 187.903 118.832C187.903 119.984 187.975 120.928 188.119 121.664C188.215 122.176 188.375 122.552 188.599 122.792C188.839 123.016 189.191 123.128 189.655 123.128C189.927 123.128 190.207 123.056 190.495 122.912C190.687 122.8 190.863 122.744 191.023 122.744C191.247 122.744 191.407 122.816 191.503 122.96C191.615 123.104 191.671 123.296 191.671 123.536C191.671 123.984 191.431 124.36 190.951 124.664C190.471 124.952 189.855 125.096 189.103 125.096C188.639 125.096 188.167 124.984 187.687 124.76C187.223 124.536 186.831 124.256 186.511 123.92C186.463 123.872 186.375 123.688 186.247 123.368C186.119 123.048 186.007 122.704 185.911 122.336C185.751 121.584 185.671 120.528 185.671 119.168C185.671 118.8 185.703 117.928 185.767 116.552H184.495H181.975C180.663 116.552 179.951 116.568 179.839 116.6C179.839 117.608 179.887 119.04 179.983 120.896L180.031 122L180.127 123.848C180.159 124.312 180.111 124.64 179.983 124.832C179.871 125.008 179.623 125.096 179.239 125.096C178.535 125.096 178.079 124.672 177.871 123.824C177.743 123.216 177.639 122.352 177.559 121.232C177.495 120.096 177.463 119.096 177.463 118.232C177.463 117.784 177.487 117.264 177.535 116.672C177.503 116.656 177.415 116.648 177.271 116.648C177.127 116.648 177.023 116.656 176.959 116.672C176.479 116.704 176.127 116.72 175.903 116.72C175.759 116.72 175.615 116.616 175.471 116.408C175.327 116.2 175.255 115.96 175.255 115.688C175.255 115.528 175.311 115.384 175.423 115.256C175.535 115.112 175.671 115.008 175.831 114.944C176.071 114.816 176.415 114.752 176.863 114.752H177.583C177.583 112.512 177.831 110.952 178.327 110.072C178.807 109.24 179.599 108.824 180.703 108.824C181.215 108.824 181.703 108.928 182.167 109.136C182.647 109.344 183.031 109.632 183.319 110C183.623 110.368 183.775 110.784 183.775 111.248C183.775 111.744 183.711 112.08 183.583 112.256C183.455 112.416 183.271 112.496 183.031 112.496ZM204.735 119.288C204.831 118.936 204.935 118.456 205.047 117.848C205.207 117.128 205.335 116.584 205.431 116.216C205.527 115.848 205.655 115.536 205.815 115.28C205.991 114.992 206.143 114.8 206.271 114.704C206.415 114.608 206.567 114.56 206.727 114.56C207.559 114.56 207.975 114.88 207.975 115.52C207.975 115.84 207.847 116.44 207.591 117.32C206.743 119.88 206.135 121.864 205.767 123.272C205.607 123.864 205.367 124.32 205.047 124.64C204.727 124.944 204.295 125.096 203.751 125.096C203.479 125.096 203.199 124.968 202.911 124.712C202.639 124.44 202.415 124.112 202.239 123.728L201.975 123.08C201.527 121.944 201.191 121.072 200.967 120.464C200.759 119.84 200.623 119.28 200.559 118.784L200.343 119.552C199.959 120.928 199.559 122.208 199.143 123.392C198.935 124 198.679 124.44 198.375 124.712C198.071 124.968 197.679 125.096 197.199 125.096C196.911 125.096 196.655 125.032 196.431 124.904C196.223 124.776 196.023 124.56 195.831 124.256C195.575 123.84 195.327 123.28 195.087 122.576C194.863 121.872 194.535 120.776 194.103 119.288C193.895 118.648 193.703 117.976 193.527 117.272C193.351 116.552 193.263 116.048 193.263 115.76C193.263 115.424 193.351 115.16 193.527 114.968C193.703 114.776 193.959 114.68 194.295 114.68C194.727 114.68 195.031 114.768 195.207 114.944C195.383 115.104 195.543 115.352 195.687 115.688C195.767 116.264 195.943 117.08 196.215 118.136L196.743 120.392C196.775 120.568 196.871 120.936 197.031 121.496L197.223 122.192C197.575 121.44 197.871 120.72 198.111 120.032C198.351 119.344 198.615 118.496 198.903 117.488C198.919 117.424 199.079 116.872 199.383 115.832C199.591 115.496 199.775 115.248 199.935 115.088C200.095 114.912 200.255 114.824 200.415 114.824C200.735 114.824 201.007 114.928 201.231 115.136C201.471 115.328 201.647 115.568 201.759 115.856C201.951 116.48 202.119 117.048 202.263 117.56C202.327 117.768 202.471 118.272 202.695 119.072C202.935 119.856 203.151 120.52 203.343 121.064C203.535 121.608 203.695 121.992 203.823 122.216L204.735 119.288ZM220.879 123.848C220.879 124.2 220.687 124.496 220.303 124.736C219.919 124.976 219.567 125.096 219.247 125.096C218.655 125.096 218.175 125.024 217.807 124.88C217.455 124.72 217.119 124.432 216.799 124.016C216.399 124.384 215.839 124.664 215.119 124.856C214.399 125.032 213.735 125.12 213.127 125.12C212.135 125.12 211.311 124.856 210.655 124.328C210.015 123.784 209.695 122.992 209.695 121.952C209.695 121.504 209.831 121.056 210.103 120.608C210.375 120.144 210.711 119.776 211.111 119.504C211.543 119.216 212.031 119.024 212.575 118.928C213.119 118.816 213.751 118.76 214.471 118.76C214.807 118.76 215.207 118.824 215.671 118.952C216.135 119.08 216.503 119.216 216.775 119.36V118.976C216.775 118.112 216.559 117.52 216.127 117.2C215.711 116.864 215.039 116.696 214.111 116.696C213.823 116.696 213.559 116.744 213.319 116.84C213.095 116.92 212.831 117.04 212.527 117.2C212.239 117.36 211.967 117.44 211.711 117.44C211.487 117.44 211.271 117.352 211.063 117.176C210.855 116.984 210.751 116.784 210.751 116.576C210.751 115.904 211.167 115.416 211.999 115.112C212.847 114.792 213.711 114.632 214.591 114.632C215.039 114.632 215.551 114.728 216.127 114.92C216.703 115.096 217.191 115.344 217.591 115.664C218.071 116.064 218.439 116.544 218.695 117.104C218.967 117.664 219.103 118.272 219.103 118.928C219.103 119.136 219.087 119.448 219.055 119.864C219.023 120.312 219.007 120.696 219.007 121.016L218.983 121.664C218.951 122.016 218.935 122.296 218.935 122.504C218.935 122.696 218.999 122.864 219.127 123.008C219.271 123.136 219.439 123.2 219.631 123.2L220.303 123.176C220.479 123.176 220.615 123.248 220.711 123.392C220.823 123.52 220.879 123.672 220.879 123.848ZM213.127 123.224C213.815 123.224 214.391 123.152 214.855 123.008C215.319 122.864 215.879 122.6 216.535 122.216C216.599 121.944 216.639 121.584 216.655 121.136C215.775 120.72 215.047 120.512 214.471 120.512C213.927 120.512 213.487 120.536 213.151 120.584C212.815 120.616 212.511 120.752 212.239 120.992C211.967 121.232 211.831 121.616 211.831 122.144C211.831 122.448 211.975 122.704 212.263 122.912C212.567 123.12 212.855 123.224 213.127 123.224ZM222.524 116.576C222.108 116.288 221.9 115.984 221.9 115.664C221.9 115.44 221.996 115.232 222.188 115.04C222.38 114.848 222.668 114.752 223.052 114.752C223.5 114.752 223.9 114.872 224.252 115.112C224.62 115.336 224.876 115.664 225.02 116.096C225.388 115.664 225.804 115.32 226.268 115.064C226.748 114.808 227.236 114.68 227.732 114.68C228.324 114.68 228.86 114.84 229.34 115.16C229.82 115.48 230.06 115.912 230.06 116.456C230.06 116.76 229.924 117.072 229.652 117.392C229.396 117.712 229.132 117.872 228.86 117.872C228.716 117.872 228.588 117.84 228.476 117.776C228.38 117.696 228.26 117.584 228.116 117.44C227.956 117.28 227.82 117.168 227.708 117.104C227.596 117.024 227.468 116.984 227.324 116.984C227.068 116.984 226.828 117.024 226.604 117.104C226.38 117.184 226.228 117.28 226.148 117.392C225.892 117.792 225.7 118.152 225.572 118.472C225.46 118.792 225.404 119.136 225.404 119.504C225.404 119.776 225.396 119.992 225.38 120.152L225.356 121.52C225.356 121.728 225.364 121.96 225.38 122.216C225.396 122.472 225.412 122.664 225.428 122.792C225.476 123.224 225.5 123.64 225.5 124.04C225.5 124.312 225.396 124.552 225.188 124.76C224.98 124.968 224.724 125.072 224.42 125.072C223.94 125.072 223.588 124.984 223.364 124.808C223.14 124.616 223.028 124.272 223.028 123.776L223.004 122.24C222.988 121.936 222.98 121.504 222.98 120.944L223.004 119.36C223.036 118.592 223.052 117.968 223.052 117.488C223.052 117.312 223.012 117.152 222.932 117.008C222.868 116.864 222.732 116.72 222.524 116.576ZM231.283 119.912C231.283 119.304 231.395 118.696 231.619 118.088C231.843 117.464 232.139 116.896 232.507 116.384C232.875 115.872 233.459 115.456 234.259 115.136C235.059 114.8 235.771 114.632 236.395 114.632C237.035 114.632 237.683 114.72 238.339 114.896C239.011 115.072 239.475 115.344 239.731 115.712C240.323 116.544 240.619 117.36 240.619 118.16C240.619 118.592 240.523 118.96 240.331 119.264C240.155 119.568 239.899 119.896 239.563 120.248C239.291 120.536 238.859 120.728 238.267 120.824C237.691 120.92 237.115 120.968 236.539 120.968C236.171 120.968 235.723 120.936 235.195 120.872C234.667 120.792 234.155 120.696 233.659 120.584C233.691 120.904 233.771 121.216 233.899 121.52C234.027 121.824 234.179 122.056 234.355 122.216C234.675 122.52 235.003 122.712 235.339 122.792C235.691 122.872 236.139 122.912 236.683 122.912C237.259 122.912 237.795 122.816 238.291 122.624C238.691 122.48 239.019 122.408 239.275 122.408C239.579 122.408 239.811 122.504 239.971 122.696C240.131 122.872 240.211 123.104 240.211 123.392C240.211 123.792 239.979 124.12 239.515 124.376C239.051 124.632 238.515 124.824 237.907 124.952C237.315 125.064 236.835 125.12 236.467 125.12C235.715 125.12 234.987 124.984 234.283 124.712C233.579 124.44 232.995 124.056 232.531 123.56C232.147 123.112 231.843 122.576 231.619 121.952C231.395 121.312 231.283 120.632 231.283 119.912ZM236.515 116.672C236.163 116.672 235.811 116.744 235.459 116.888C235.107 117.016 234.819 117.2 234.595 117.44C234.307 117.744 234.107 117.992 233.995 118.184C233.899 118.36 233.835 118.608 233.803 118.928C234.203 119.056 235.035 119.12 236.299 119.12C236.987 119.12 237.515 119.016 237.883 118.808C238.267 118.6 238.459 118.328 238.459 117.992C238.459 117.656 238.251 117.352 237.835 117.08C237.419 116.808 236.979 116.672 236.515 116.672ZM252.191 109.784C254.367 109.784 256.087 110.088 257.351 110.696C258.631 111.288 259.599 111.952 260.255 112.688C260.783 113.296 261.215 114 261.551 114.8C261.887 115.584 262.055 116.528 262.055 117.632C262.055 118.448 261.871 119.304 261.503 120.2C261.135 121.08 260.655 121.792 260.063 122.336C259.439 122.928 258.847 123.408 258.287 123.776C257.743 124.144 256.999 124.448 256.055 124.688C255.127 124.912 253.943 125.024 252.503 125.024C251.415 125.024 250.431 124.904 249.551 124.664C248.671 124.408 248.231 123.984 248.231 123.392C248.231 123.152 248.335 122.968 248.543 122.84C248.767 122.696 249.007 122.624 249.263 122.624C249.407 122.624 249.503 122.632 249.551 122.648C249.663 121.592 249.719 120.472 249.719 119.288C249.719 117.96 249.687 116.864 249.623 116C249.559 115.12 249.471 114.248 249.359 113.384C249.343 113.272 249.303 112.96 249.239 112.448C249.191 111.936 249.167 111.416 249.167 110.888C249.167 110.552 249.335 110.272 249.671 110.048C250.007 109.808 250.351 109.688 250.703 109.688C250.911 109.688 251.191 109.704 251.543 109.736C251.831 109.768 252.047 109.784 252.191 109.784ZM251.879 122.768C252.263 122.832 252.767 122.864 253.391 122.864C254.447 122.864 255.447 122.648 256.391 122.216C257.335 121.768 258.095 121.152 258.671 120.368C259.247 119.568 259.535 118.648 259.535 117.608C259.535 116.52 259.343 115.592 258.959 114.824C258.575 114.056 257.983 113.424 257.183 112.928C256.591 112.56 255.863 112.296 254.999 112.136C254.135 111.96 253.095 111.872 251.879 111.872C251.879 112.256 251.903 112.736 251.951 113.312C251.951 113.504 251.967 113.84 251.999 114.32C252.095 116.176 252.143 117.672 252.143 118.808C252.143 120.456 252.055 121.776 251.879 122.768ZM263.954 119.504C263.954 118.528 264.17 117.72 264.602 117.08C265.034 116.424 265.634 115.808 266.402 115.232C266.626 115.072 267.002 114.936 267.53 114.824C268.058 114.696 268.522 114.632 268.922 114.632C269.402 114.632 269.906 114.736 270.434 114.944C270.978 115.136 271.418 115.36 271.754 115.616C272.346 116.048 272.754 116.552 272.978 117.128C273.202 117.688 273.314 118.36 273.314 119.144C273.314 119.48 273.122 119.808 272.738 120.128C272.37 120.432 271.97 120.584 271.538 120.584L270.626 120.56C270.162 120.56 269.498 120.576 268.634 120.608L268.13 120.632C267.778 120.664 267.514 120.68 267.338 120.68C267.082 120.68 266.73 120.648 266.282 120.584C266.346 121.336 266.626 121.928 267.122 122.36C267.618 122.776 268.154 122.984 268.73 122.984C269.738 122.984 270.442 122.784 270.842 122.384C271.178 122.144 271.402 121.992 271.514 121.928C271.626 121.864 271.802 121.832 272.042 121.832C272.298 121.832 272.522 121.952 272.714 122.192C272.906 122.432 273.002 122.672 273.002 122.912C273.002 123.184 272.834 123.464 272.498 123.752C272.178 124.024 271.738 124.312 271.178 124.616C270.874 124.744 270.458 124.856 269.93 124.952C269.402 125.048 268.962 125.096 268.61 125.096C268.05 125.096 267.426 124.936 266.738 124.616C266.05 124.28 265.538 123.912 265.202 123.512C264.866 123.112 264.57 122.544 264.314 121.808C264.074 121.072 263.954 120.304 263.954 119.504ZM268.73 118.856C269.866 118.856 270.698 118.816 271.226 118.736C271.194 118.272 271.05 117.896 270.794 117.608C270.538 117.304 270.186 117.048 269.738 116.84C269.594 116.776 269.466 116.728 269.354 116.696C269.242 116.664 269.114 116.648 268.97 116.648C268.234 116.648 267.61 116.848 267.098 117.248C266.602 117.648 266.306 118.16 266.21 118.784C267.01 118.832 267.85 118.856 268.73 118.856ZM281.153 118.832C281.201 118.704 281.369 118.24 281.657 117.44C281.961 116.64 282.241 116.032 282.497 115.616C282.913 114.96 283.281 114.632 283.601 114.632C284.049 114.632 284.393 114.72 284.633 114.896C284.873 115.056 284.993 115.288 284.993 115.592C284.993 115.736 284.929 115.936 284.801 116.192C284.689 116.448 284.625 116.6 284.609 116.648C283.969 118.056 283.393 119.568 282.881 121.184L282.377 123.056C282.185 123.664 281.857 124.16 281.393 124.544C280.929 124.912 280.385 125.096 279.761 125.096C279.201 125.096 278.681 124.84 278.201 124.328C277.913 123.88 277.609 123.312 277.289 122.624C276.985 121.936 276.721 121.264 276.497 120.608L275.657 118.088C275.481 117.592 275.337 117.168 275.225 116.816C275.129 116.464 275.081 116.144 275.081 115.856C275.065 115.52 275.161 115.248 275.369 115.04C275.577 114.832 275.865 114.728 276.233 114.728C276.649 114.728 276.945 114.816 277.121 114.992C277.297 115.152 277.457 115.408 277.601 115.76C277.665 116.128 277.841 116.88 278.129 118.016L278.297 118.688C278.441 119.232 278.625 119.784 278.849 120.344C279.073 120.904 279.297 121.44 279.521 121.952C279.489 121.872 279.601 122.136 279.857 122.744C280.017 122.28 280.201 121.712 280.409 121.04L281.153 118.832ZM286.502 119.576C286.502 119 286.606 118.464 286.814 117.968C287.022 117.456 287.326 116.928 287.726 116.384C288.126 115.84 288.678 115.416 289.382 115.112C290.086 114.792 290.854 114.632 291.686 114.632C292.326 114.632 292.942 114.768 293.534 115.04C294.142 115.296 294.686 115.616 295.166 116C295.23 116.112 295.342 116.32 295.502 116.624C295.662 116.912 295.774 117.176 295.838 117.416C295.918 117.656 295.958 117.904 295.958 118.16C295.958 119.232 295.566 119.952 294.782 120.32C293.998 120.672 293.006 120.848 291.806 120.848C290.606 120.848 289.63 120.768 288.878 120.608C288.91 120.912 288.99 121.216 289.118 121.52C289.246 121.824 289.398 122.056 289.574 122.216C289.894 122.52 290.206 122.72 290.51 122.816C290.83 122.896 291.254 122.936 291.782 122.936C292.582 122.936 293.206 122.784 293.654 122.48C294.07 122.208 294.39 122.072 294.614 122.072C294.918 122.072 295.15 122.168 295.31 122.36C295.47 122.536 295.55 122.768 295.55 123.056C295.55 123.664 295.158 124.16 294.374 124.544C293.606 124.928 292.734 125.12 291.758 125.12C290.99 125.12 290.23 124.984 289.478 124.712C288.726 124.44 288.126 124.056 287.678 123.56C287.374 123.048 287.102 122.424 286.862 121.688C286.622 120.952 286.502 120.248 286.502 119.576ZM291.782 116.6C291.43 116.6 291.062 116.664 290.678 116.792C290.31 116.904 290.022 117.08 289.814 117.32C289.558 117.592 289.366 117.84 289.238 118.064C289.126 118.288 289.054 118.568 289.022 118.904C289.198 118.904 289.366 118.912 289.526 118.928C289.686 118.944 289.838 118.96 289.982 118.976C290.686 119.04 291.214 119.072 291.566 119.072C292.27 119.072 292.806 118.968 293.174 118.76C293.558 118.552 293.75 118.272 293.75 117.92C293.75 117.584 293.534 117.28 293.102 117.008C292.686 116.736 292.246 116.6 291.782 116.6ZM300.96 121.28C300.96 121.888 301.048 122.36 301.224 122.696C301.416 123.016 301.656 123.176 301.944 123.176C302.104 123.176 302.256 123.168 302.4 123.152C302.544 123.12 302.688 123.104 302.832 123.104C302.992 123.104 303.128 123.184 303.24 123.344C303.368 123.504 303.432 123.68 303.432 123.872C303.432 124.256 303.248 124.56 302.88 124.784C302.528 124.992 302.048 125.096 301.44 125.096C301.008 125.096 300.568 124.968 300.12 124.712C299.688 124.44 299.328 124.024 299.04 123.464C298.752 122.888 298.608 122.176 298.608 121.328C298.608 119.504 298.64 117.96 298.704 116.696C298.784 115.192 298.824 113.296 298.824 111.008C298.824 110.288 298.864 109.784 298.944 109.496C299.04 109.272 299.192 109.104 299.4 108.992C299.624 108.864 299.856 108.8 300.096 108.8C300.336 108.8 300.544 108.84 300.72 108.92C300.912 109 301.04 109.128 301.104 109.304C301.168 109.496 301.208 109.688 301.224 109.88C301.256 110.056 301.272 110.312 301.272 110.648C301.272 111.304 301.248 111.936 301.2 112.544C301.168 113.28 301.152 113.816 301.152 114.152C301.024 116.968 300.96 119.344 300.96 121.28ZM314.573 117.296C314.701 117.52 314.805 117.848 314.885 118.28C314.965 118.696 315.005 119.072 315.005 119.408C315.005 120.032 314.869 120.92 314.597 122.072C313.493 124.088 311.861 125.096 309.701 125.096C308.901 125.096 308.085 124.832 307.253 124.304C306.421 123.776 305.845 123.168 305.525 122.48C305.093 121.104 304.877 120.232 304.877 119.864C304.877 119.224 305.013 118.544 305.285 117.824C305.573 117.104 305.933 116.48 306.365 115.952C306.637 115.584 307.125 115.272 307.829 115.016C308.533 114.744 309.173 114.608 309.749 114.608C310.869 114.608 311.821 114.824 312.605 115.256C313.389 115.672 314.045 116.352 314.573 117.296ZM312.485 121.16C312.565 120.952 312.605 120.416 312.605 119.552C312.605 119.088 312.517 118.632 312.341 118.184C312.181 117.736 311.941 117.352 311.621 117.032C311.589 117 311.501 116.952 311.357 116.888C311.213 116.808 311.013 116.736 310.757 116.672C310.517 116.592 310.237 116.552 309.917 116.552C309.021 116.552 308.365 116.912 307.949 117.632C307.533 118.352 307.325 119.168 307.325 120.08C307.325 120.24 307.365 120.544 307.445 120.992C307.541 121.44 307.621 121.72 307.685 121.832C307.733 121.944 307.853 122.104 308.045 122.312C308.253 122.504 308.501 122.68 308.789 122.84C309.093 122.984 309.405 123.056 309.725 123.056C310.445 123.056 311.021 122.888 311.453 122.552C311.885 122.2 312.229 121.736 312.485 121.16ZM317.086 116.816C316.926 116.592 316.814 116.4 316.75 116.24C316.686 116.08 316.654 115.88 316.654 115.64C316.654 115.384 316.758 115.168 316.966 114.992C317.19 114.816 317.47 114.728 317.806 114.728C318.142 114.728 318.478 114.856 318.814 115.112C319.15 115.352 319.422 115.664 319.63 116.048C319.966 115.568 320.422 115.224 320.998 115.016C321.574 114.808 322.198 114.704 322.87 114.704C323.606 114.704 324.286 114.928 324.91 115.376C325.55 115.824 326.054 116.4 326.422 117.104C326.79 117.808 326.974 118.512 326.974 119.216C326.974 119.904 326.902 120.52 326.758 121.064C326.614 121.592 326.358 122.128 325.99 122.672C325.574 123.248 325.014 123.72 324.31 124.088C323.622 124.456 322.798 124.64 321.838 124.64C321.582 124.64 321.27 124.576 320.902 124.448C320.534 124.304 320.23 124.152 319.99 123.992C319.878 125.08 319.822 126.024 319.822 126.824C319.822 127.304 319.846 127.76 319.894 128.192C319.926 128.704 319.942 129.072 319.942 129.296C319.942 129.648 319.822 129.904 319.582 130.064C319.342 130.24 319.078 130.328 318.79 130.328C318.214 130.328 317.83 130.168 317.638 129.848C317.462 129.544 317.374 129.104 317.374 128.528C317.438 127.152 317.518 125.88 317.614 124.712C317.726 123.032 317.782 120.968 317.782 118.52C317.782 118.328 317.702 118.048 317.542 117.68C317.398 117.312 317.246 117.024 317.086 116.816ZM320.086 121.616C320.166 121.92 320.39 122.176 320.758 122.384C321.142 122.576 321.486 122.672 321.79 122.672C322.702 122.672 323.382 122.424 323.83 121.928C324.166 121.576 324.382 121.232 324.478 120.896C324.59 120.56 324.646 120.024 324.646 119.288C324.646 118.712 324.534 118.232 324.31 117.848C324.086 117.448 323.814 117.16 323.494 116.984C323.174 116.792 322.87 116.696 322.582 116.696C321.926 116.696 321.39 116.896 320.974 117.296C320.574 117.68 320.318 118.208 320.206 118.88C320.126 119.408 320.086 120.32 320.086 121.616ZM328.946 119.504C328.946 118.528 329.162 117.72 329.594 117.08C330.026 116.424 330.626 115.808 331.394 115.232C331.618 115.072 331.994 114.936 332.522 114.824C333.05 114.696 333.514 114.632 333.914 114.632C334.394 114.632 334.898 114.736 335.426 114.944C335.97 115.136 336.41 115.36 336.746 115.616C337.338 116.048 337.746 116.552 337.97 117.128C338.194 117.688 338.306 118.36 338.306 119.144C338.306 119.48 338.114 119.808 337.73 120.128C337.362 120.432 336.962 120.584 336.53 120.584L335.618 120.56C335.154 120.56 334.49 120.576 333.626 120.608L333.122 120.632C332.77 120.664 332.506 120.68 332.33 120.68C332.074 120.68 331.722 120.648 331.274 120.584C331.338 121.336 331.618 121.928 332.114 122.36C332.61 122.776 333.146 122.984 333.722 122.984C334.73 122.984 335.434 122.784 335.834 122.384C336.17 122.144 336.394 121.992 336.506 121.928C336.618 121.864 336.794 121.832 337.034 121.832C337.29 121.832 337.514 121.952 337.706 122.192C337.898 122.432 337.994 122.672 337.994 122.912C337.994 123.184 337.826 123.464 337.49 123.752C337.17 124.024 336.73 124.312 336.17 124.616C335.866 124.744 335.45 124.856 334.922 124.952C334.394 125.048 333.954 125.096 333.602 125.096C333.042 125.096 332.418 124.936 331.73 124.616C331.042 124.28 330.53 123.912 330.194 123.512C329.858 123.112 329.562 122.544 329.306 121.808C329.066 121.072 328.946 120.304 328.946 119.504ZM333.722 118.856C334.858 118.856 335.69 118.816 336.218 118.736C336.186 118.272 336.042 117.896 335.786 117.608C335.53 117.304 335.178 117.048 334.73 116.84C334.586 116.776 334.458 116.728 334.346 116.696C334.234 116.664 334.106 116.648 333.962 116.648C333.226 116.648 332.602 116.848 332.09 117.248C331.594 117.648 331.298 118.16 331.202 118.784C332.002 118.832 332.842 118.856 333.722 118.856ZM343.913 124.04C343.881 124.312 343.769 124.552 343.577 124.76C343.385 124.968 343.137 125.072 342.833 125.072C342.353 125.072 342.001 124.984 341.777 124.808C341.553 124.616 341.441 124.272 341.441 123.776C341.441 123.104 341.481 122.368 341.561 121.568C341.625 120.64 341.657 119.928 341.657 119.432C341.657 119.176 341.641 118.856 341.609 118.472C341.577 118.12 341.561 117.856 341.561 117.68C341.513 117.408 341.401 117.192 341.225 117.032C341.065 116.872 340.809 116.736 340.457 116.624C340.313 116.56 340.193 116.456 340.097 116.312C340.001 116.152 339.953 116.008 339.953 115.88C339.953 115.512 340.097 115.232 340.385 115.04C340.673 114.848 341.025 114.752 341.441 114.752C341.905 114.752 342.305 114.912 342.641 115.232C342.977 115.552 343.233 115.952 343.409 116.432C343.777 115.904 344.225 115.48 344.753 115.16C345.297 114.84 345.825 114.68 346.337 114.68C346.993 114.68 347.545 114.792 347.993 115.016C348.457 115.224 348.689 115.592 348.689 116.12C348.689 116.424 348.553 116.744 348.281 117.08C348.025 117.4 347.761 117.56 347.489 117.56C347.281 117.56 347.033 117.464 346.745 117.272C346.633 117.192 346.505 117.128 346.361 117.08C346.233 117.016 346.097 116.984 345.953 116.984C345.697 116.984 345.457 117.024 345.233 117.104C345.009 117.184 344.857 117.28 344.777 117.392C344.521 117.792 344.329 118.152 344.201 118.472C344.089 118.792 344.033 119.136 344.033 119.504C344.033 119.776 344.025 119.992 344.009 120.152L343.985 121.52L344.009 122.432C344.009 123.104 343.977 123.64 343.913 124.04Z" fill="#FDF0D5"/>
</svg>
